<?xml version="1.0" encoding="utf-8"?>
<!-- Generator: Adobe Illustrator 18.0.0, SVG Export Plug-In . SVG Version: 6.00 Build 0)  -->
<!DOCTYPE svg PUBLIC "-//W3C//DTD SVG 1.1//EN" "http://www.w3.org/Graphics/SVG/1.1/DTD/svg11.dtd">
<svg version="1.1" id="Layer_1" xmlns="http://www.w3.org/2000/svg" xmlns:xlink="http://www.w3.org/1999/xlink" x="0px" y="0px"
	 viewBox="0 0 365.2 233.4" enable-background="new 0 0 365.2 233.4" xml:space="preserve">
<g>
	<polyline fill="#DB0569" points="0,181.7 0,54.1 184.5,0 365.2,53.4 365.2,180.7 183.1,233.4 	"/>
	<polyline fill="#FFFFFF" points="9.6,61.3 183.8,10.6 355.9,61.3 355.9,172.9 183.4,223.5 9.6,174.2 	"/>
	<polyline fill="#005BA3" points="13,64 184.1,13.7 352.2,63.3 352.2,170.4 183.1,220.4 13,171.8 	"/>
	<path fill="#FFFFFF" d="M196.6,44.9c0,0,1.8,2.6,3.7,0.9c2.2-2-0.6-4.5-2.9-5c-2.1-0.4-7-0.5-10.2,3.9c-3.1,4.4-2.9,13,1.1,18.3
		c3.9,5.3,10.5,9.4,19.2,6.9c8.8-2.4,8.7-8.7,8-10.5c-0.7-1.7-3.2-1.6-3.8-1.3c-0.5,0.4,1.1,2.2-0.5,5.2c-1.7,3-6.3,5.9-12.7,3.9
		c-6.4-2-10.3-8.4-10.1-13.7C188.5,48.2,192.1,44.1,196.6,44.9"/>
	<path fill="#FFFFFF" d="M171.6,44.8c0,0-1.7,2.7-3.7,0.9c-2.2-2,0.7-4.5,2.9-5c2.1-0.4,7-0.5,10.2,3.9c3.1,4.4,2.9,13-1.1,18.3
		c-3.9,5.2-10.5,9.4-19.2,7c-8.8-2.5-8.7-8.8-8-10.5c0.7-1.7,3.2-1.6,3.8-1.3c0.5,0.4-1.1,2.2,0.5,5.2c1.7,3,6.2,5.9,12.7,3.9
		c6.4-2,10.3-8.4,10.1-13.8C179.6,48,176,43.9,171.6,44.8"/>
	<path fill="#FFFFFF" d="M178.1,38.6c0,0,4.4-3.7,6.4-7.6c0,0,1.9,4.6,5.9,7.4c0,0-5.1,3.2-5.9,7.7C184.5,46.1,182.3,41,178.1,38.6"
		/>
	<path fill="#FFFFFF" d="M178.1,68.4c0,0,4-3.7,6-7.6c0,0,1.6,4.7,5.5,7.5c0,0-4.8,2.7-5.6,7.6C184.1,75.9,182.3,70.8,178.1,68.4"/>
	<path fill="#FFFFFF" d="M241.1,99.1l4.2-12.8l9.3-1.3l-4.3,14.2l7.5,0.1l-0.5,2.7h-7.5c0,0-5.8,14.7-7.6,23.3c-1.7,8.5,0,7.4,2.3,6
		c2.3-1.4,6.8-5.8,7.9-8.1c0,0,1.3-9.7,6.7-17c5.4-7.3,12.1-8.1,15.4-7.7c3.3,0.5,7.4,4.2,7.2,8.6c-0.2,4.3-0.2,5.6-0.2,5.6
		c0,0,2.8-0.5,5.5-3.4c2.7-2.8,5.4-7.5,5.8-9.6l7.6,0.2l-0.4,5.5c0,0,5.9-5.2,8.3-6.2c2.4-1,7.8-1.1,8.3,2.3c0.5,3.4,0,6.3-3.4,15.5
		c-3.5,9.2-7.8,20.6-3.1,25c4.6,4.4,11.7,1.5,16.8-2.5c5.1-4.1,13.3-15.6,13-23.6c-0.2-8-0.9-9.2,1.3-9.6c2.1-0.4,3.6,1.4,3.4,6
		c-0.2,4.6,0,10.8-6.3,20.5c-6.4,9.7-16.8,15.3-24.7,14.8c-7.9-0.4-11.8-3.4-13.1-10.8c-1.3-7.4,1.1-14.5,3.7-21.2
		c2.6-6.7,4.2-10,3.3-10.9c-0.9-0.9-3.3,0.3-5.7,3.6c-2.4,3.3-8.1,12.9-12.2,28h-8.8l8.1-24.3c0,0-5.2,4.7-8.1,4.6
		c0,0-2.6,14.2-10.3,18.4c-7.8,4.1-16.6,1.9-17.6-7.3c0,0-5.2,5.8-8.5,7.7c-3.3,2-10.7,5-11.6-3.2c-0.8-6.9,4.1-18,4.4-19.5
		c0.3-1.5,3.4-10.7,3.4-10.7h-6.1v-2.7"/>
	<path fill="#FFFFFF" d="M135.2,100.7l1.2-2.5h9.2c0,0-6.2,20-7.6,23.9c-1.3,3.9-2.5,7.9,0.2,8.3c2.7,0.4,8.7-7.8,9.4-9.1
		c1.1-2.1,7.3-23,7.3-23h8c0,0,0,5.2-0.5,6.8c0,0,5.9-5.5,9.3-6.4c3.3-1,8-0.1,6.9,9.4c0,0,6.6-8.4,11.4-9.7c4.9-1.3,8.4,1.1,7,6.9
		c-1.4,5.8-5.2,14.4-6.7,18.6c-1.5,4.2-2.2,9.1,1.3,7.3c3.5-1.9,7.3-5.6,9.7-10.5l7-21.6h7.2l0.4,3.3c0,0,3.8-4.9,9.7-4
		c6.6,1,5.4,16.1,2,24c-3.3,8-10.9,14.8-15.6,14.5c-4.8-0.3-4.9-1-6.2-2.2l-5.3,16.1l-9.2-0.2l6.5-21.1c0,0-7.6,7.8-12.7,7.7
		c-5.1-0.1-6.3-4.9-5.7-7.7c0.6-2.8,6.8-19.2,7.4-21.6c0.6-2.4,1.4-5-1.6-2.8c-3,2.2-6.3,7.4-8.7,13.1c-2.4,5.7-6.8,17.9-6.8,17.9
		l-8.3-0.1c0,0,8.1-25.8,8.6-27.6c0.5-1.9-0.4-3.7-2.8-2.9c-2.4,0.9-5,4.4-7,8.7c-2.1,4.4-6.4,15.1-8.1,21.5h-9.4l2-5.9
		c0,0-6.6,6.9-11.4,7c-4.8,0.1-6.2-2.8-6.2-8.3c0,0-6.5,7.9-12.4,7.9c-5.9,0-6.8-3.9-6.1-10.2c0.7-6.2,3-15.8,9.6-22.8
		C124.9,96.3,133.7,96.8,135.2,100.7"/>
	<path fill="#FFFFFF" d="M69.1,109h-8.4l0.1,3.8l7.1,0.1c0,0-2.9,13.2-7.6,22.7c-4.7,9.5-10.4,17.6-19,16.6
		c-8.5-1-16.2-9.2-16.1-20.7c0.1-11.6,0.6-16,6.7-22.4c2.5-2.6,2.3-6.2-1.7-5.1c-4,1.1-6.7,3.6-8.5,11c-1.8,7.4-2.7,19.2,5.2,32.5
		c6.5,10.9,22,10.7,29.6,4c5.6-4.9,12.1-13.3,16-22.8c3.9-9.5,5.9-15.5,5.9-15.5h14.8c0,0-14,34.1,3.9,43c0,0-3.4-8.7-1.1-18.2
		c2.3-9.5,7-23.2,8.1-24.7l2.2-0.2l2.4-0.2l0.4-3.1l-3.8-0.3c0,0,2.8-10.2,5.7-16.6c2.9-6.4,6.3-12,11.5-16.7c0,0-4.2-1.6-12.2,4.5
		c-8,6.1-16.1,28.8-16.1,28.8l-14.4-0.2c0,0,2.4-9.6,6.4-17.6c4-8,7.5-13.2,7.5-13.2S78,82.5,75.5,82.9c-2.5,0.5-12.2,2.8-16,4.5
		c-3.8,1.8-5.4,7-4,7.7c1.4,0.8,4.3-1.5,6.9-3.4C65,90,76.6,83.8,83,84C83,84,75.5,91.3,69.1,109"/>
	<path fill="#005BA3" d="M267.7,108.2c0,0,0.4,4.8,6.7,8.7c0,0-1.2,6-3.1,9.8c-1.9,3.8-4.7,7.3-7.3,6.1c-2.6-1.2-2-9.7-0.6-14.9
		C264.7,112.9,267.7,108.2,267.7,108.2"/>
	<path fill="#005BA3" d="M271.1,103.3c0,0,1.8-2.2,4.1-1.4c2.3,0.8,1.6,8.1,0.5,11.4c0,0-2.5-0.3-3.9-4.3
		C270.5,105,271.1,103.3,271.1,103.3"/>
	<path fill="#005BA3" d="M220.8,103.6c1.3,0.5,1.8,8.2-1.3,15.8c-3.1,7.6-8.2,13-10.1,12.4c-1.9-0.5-1.5-7,1.7-15.3
		C214.3,108.3,218.7,102.7,220.8,103.6"/>
	<path fill="#005BA3" d="M132.7,103.3c0.6,0.4,1.2,4.5-0.5,9.4c-1.7,4.9-4,10.3-6.6,13.1c-2.6,2.8-5.7,4.5-7.2,3.9
		c-1.5-0.6-0.6-6.8,1.3-12.1c1.9-5.3,5.1-11,7.5-12.8C129.8,103,132.1,102.9,132.7,103.3"/>
	<path fill="#DB0569" d="M351.3,193.8h-1.9v-0.7h4.6v0.7h-1.9v6.6h-0.9 M359.2,199l2.3-5.9h1.1v7.3h-0.8v-5.5h-0.1l-2.1,5.5h-0.8
		l-2.2-5.5h0v5.5h-0.9v-7.3h1.3L359.2,199z"/>
</g>
</svg>
